<svg width="256" height="54" viewBox="0 0 256 54" fill="none" xmlns="http://www.w3.org/2000/svg">
<g clip-path="url(#clip0_14_431)">
<path d="M36.9426 29.1675V34.2234H45.1634V38.9239H36.9426V44.4061H46.237V49.2894H30.8179V24.2944H46.2472V29.1777H36.9426V29.1675Z" fill="black"/>
<path d="M81.6968 31.4519C83.1692 32.9443 83.9054 35.0255 83.9054 37.6854V49.2996H77.8114V38.5077C77.8114 37.2286 77.4739 36.2336 76.7889 35.5331C76.1038 34.8326 75.1733 34.4773 73.977 34.4773C72.7807 34.4773 71.84 34.8326 71.1652 35.5331C70.4801 36.2336 70.1427 37.2286 70.1427 38.5077V49.2996H64.0487V38.5077C64.0487 37.2286 63.7113 36.2336 63.0262 35.5331C62.3411 34.8326 61.4107 34.4773 60.2144 34.4773C59.0181 34.4773 58.0774 34.8326 57.4025 35.5331C56.7175 36.2336 56.38 37.2286 56.38 38.5077V49.2996H50.2451V29.4214H56.38V31.9189C57.0038 31.0864 57.8115 30.4265 58.8238 29.9392C59.8258 29.4519 60.9608 29.2083 62.2287 29.2083C63.7317 29.2083 65.0814 29.5331 66.2675 30.1727C67.4536 30.8123 68.3738 31.726 69.0486 32.9138C69.7439 31.8174 70.6846 30.9341 71.8809 30.2438C73.0772 29.5534 74.3758 29.2083 75.7868 29.2083C78.251 29.2083 80.2347 29.9595 81.6968 31.4519Z" fill="black"/>
<path d="M88.6599 26.4061C87.9749 25.7767 87.6375 24.995 87.6375 24.0711C87.6375 23.1168 87.9749 22.3351 88.6599 21.7056C89.345 21.0762 90.2243 20.7615 91.298 20.7615C92.3511 20.7615 93.2202 21.0762 93.8951 21.7056C94.5801 22.3351 94.9176 23.127 94.9176 24.0711C94.9176 24.995 94.5801 25.7767 93.8951 26.4061C93.21 27.0356 92.3511 27.3503 91.298 27.3503C90.2243 27.3503 89.345 27.0356 88.6599 26.4061ZM94.345 29.4214V49.2995H88.21V29.4214H94.345Z" fill="black"/>
<path d="M116.604 31.4722C118.005 32.9849 118.701 35.0559 118.701 37.6854V49.2996H112.606V38.5077C112.606 37.1778 112.259 36.1422 111.564 35.4113C110.868 34.6803 109.938 34.3047 108.762 34.3047C107.586 34.3047 106.656 34.6701 105.96 35.4113C105.265 36.1524 104.917 37.1778 104.917 38.5077V49.2996H98.7825V29.4214H104.917V32.061C105.541 31.1778 106.38 30.4874 107.433 29.9798C108.486 29.4722 109.672 29.2184 110.981 29.2184C113.332 29.2082 115.204 29.9595 116.604 31.4722Z" fill="black"/>
<path d="M141.737 40.8225H127.852C127.944 42.0611 128.353 43.0052 129.048 43.655C129.754 44.3047 130.623 44.6296 131.645 44.6296C133.179 44.6296 134.242 43.99 134.835 42.7108H141.369C141.032 44.0205 140.428 45.188 139.559 46.2337C138.69 47.2793 137.596 48.1017 136.277 48.6905C134.958 49.2793 133.486 49.5839 131.86 49.5839C129.897 49.5839 128.148 49.1677 126.625 48.3352C125.091 47.5027 123.895 46.3149 123.036 44.7717C122.177 43.2286 121.748 41.4215 121.748 39.3606C121.748 37.2996 122.177 35.4925 123.026 33.9494C123.874 32.4062 125.06 31.2184 126.594 30.3859C128.128 29.5535 129.887 29.1372 131.87 29.1372C133.803 29.1372 135.531 29.5433 137.034 30.3453C138.537 31.1575 139.723 32.3047 140.572 33.7971C141.42 35.2895 141.85 37.0357 141.85 39.0357C141.85 39.6042 141.809 40.2032 141.737 40.8225ZM135.561 37.4316C135.561 36.3859 135.203 35.5534 134.488 34.9342C133.772 34.3149 132.872 34.0103 131.799 34.0103C130.766 34.0103 129.907 34.3047 129.201 34.9037C128.496 35.4925 128.056 36.3453 127.893 37.4316H135.561Z" fill="black"/>
<path d="M162.882 31.4722C164.283 32.9849 164.978 35.0559 164.978 37.6854V49.2996H158.884V38.5077C158.884 37.1778 158.537 36.1422 157.841 35.4113C157.146 34.6803 156.216 34.3047 155.04 34.3047C153.864 34.3047 152.933 34.6701 152.238 35.4113C151.543 36.1524 151.195 37.1778 151.195 38.5077V49.2996H145.06V29.4214H151.195V32.061C151.819 31.1778 152.657 30.4874 153.711 29.9798C154.764 29.4722 155.95 29.2184 157.259 29.2184C159.61 29.2082 161.492 29.9595 162.882 31.4722Z" fill="black"/>
<path d="M180.408 44.1319V49.2994H177.289C175.07 49.2994 173.332 48.7614 172.085 47.6751C170.837 46.5989 170.224 44.8324 170.224 42.3857V34.4771H167.78V29.4213H170.224V24.5786H176.359V29.4213H180.377V34.4771H176.359V42.4568C176.359 43.0456 176.502 43.4822 176.788 43.736C177.074 43.9999 177.555 44.1319 178.22 44.1319H180.408Z" fill="black"/>
<path d="M186.256 46.8021H195.009L194.538 49.2995H182.524L186.972 24.467H190.234L186.256 46.8021Z" fill="black"/>
<path d="M204.774 29.7766L201.297 49.2995H198.035L201.512 29.7766H204.774ZM202.422 26.0913C202.074 25.7462 201.9 25.3096 201.9 24.7919C201.9 24.0812 202.166 23.4721 202.688 22.9543C203.209 22.4467 203.823 22.1929 204.518 22.1929C205.07 22.1929 205.51 22.3553 205.847 22.6903C206.185 23.0254 206.348 23.4619 206.348 24.0101C206.348 24.7208 206.082 25.3299 205.561 25.8477C205.039 26.3655 204.426 26.6091 203.731 26.6091C203.199 26.6091 202.77 26.4365 202.422 26.0913Z" fill="black"/>
<path d="M224.855 31.0458C226.072 32.1219 226.685 33.6955 226.685 35.7666C226.685 36.528 226.624 37.2082 226.512 37.797L224.467 49.2996H221.236L223.209 38.2539C223.301 37.7564 223.352 37.2285 223.352 36.6904C223.352 35.2386 222.953 34.1422 222.146 33.3808C221.348 32.6194 220.223 32.2437 218.792 32.2437C217.074 32.2437 215.602 32.7818 214.395 33.8478C213.189 34.9138 212.401 36.4671 212.043 38.5178V38.4468L210.111 49.3097H206.849L210.326 29.7869H213.587L213.086 32.5991C213.894 31.5737 214.917 30.7919 216.133 30.2437C217.35 29.6955 218.628 29.4214 219.968 29.4214C222.013 29.4214 223.638 29.9595 224.855 31.0458Z" fill="black"/>
<path d="M253.884 42.4976C252.473 44.8732 250.56 46.6803 248.147 47.9087L253.28 54.0001H249.047L244.998 49.0864C243.853 49.391 242.595 49.5534 241.235 49.5534C239.149 49.5534 237.329 49.1169 235.745 48.2539C234.17 47.391 232.943 46.1727 232.064 44.5991C231.195 43.0357 230.755 41.2387 230.755 39.2184C230.755 36.4164 231.399 33.8681 232.677 31.5737C233.955 29.2793 235.724 27.4722 237.974 26.1626C240.223 24.8428 242.728 24.1829 245.509 24.1829C247.616 24.1829 249.456 24.6194 251.051 25.4824C252.636 26.3453 253.863 27.5636 254.732 29.1169C255.591 30.6702 256.021 32.457 256.021 34.4773C256 37.4519 255.295 40.1219 253.884 42.4976ZM236.143 44.5788C237.493 45.9494 239.344 46.6296 241.685 46.6296C243.792 46.6296 245.673 46.0915 247.34 45.0052C249.006 43.9291 250.295 42.4671 251.235 40.6397C252.166 38.8123 252.636 36.8326 252.636 34.6905C252.636 32.3351 251.951 30.4874 250.591 29.1372C249.231 27.7869 247.37 27.1067 245.029 27.1067C242.922 27.1067 241.041 27.6448 239.374 28.7311C237.708 29.8072 236.419 31.259 235.499 33.0763C234.579 34.8935 234.119 36.8732 234.119 39.0052C234.109 41.3504 234.794 43.2082 236.143 44.5788Z" fill="black"/>
<path d="M22.7094 22.7005L0.0715741 26.1523C0.0204497 25.533 0 24.9137 0 24.2843C0 12.5279 8.16967 2.67005 19.1921 0L22.7094 22.7005Z" fill="#009645"/>
<path d="M49.7031 18.5786L34.9997 20.8223L31.7993 0.162354C40.6745 2.55829 47.607 9.64459 49.7031 18.5786Z" fill="#39B54A"/>
<path d="M26.8197 49.2385C26.2778 49.2791 25.7359 49.2893 25.1837 49.2893C15.9405 49.2893 7.86282 44.3451 3.48657 36.9746L24.4271 33.7766L26.8197 49.2385Z" fill="#39B54A"/>
</g>
<defs>
<clipPath id="clip0_14_431">
<rect width="256" height="54" fill="white"/>
</clipPath>
</defs>
</svg>
